<?xml version="1.0" standalone="no"?>
<!DOCTYPE svg PUBLIC "-//W3C//DTD SVG 20010904//EN"
 "http://www.w3.org/TR/2001/REC-SVG-20010904/DTD/svg10.dtd">
<svg version="1.0" xmlns="http://www.w3.org/2000/svg"
 width="1947.000000pt" height="1947.000000pt" viewBox="0 0 1947.000000 1947.000000"
 preserveAspectRatio="xMidYMid meet">
<metadata>
Created by potrace 1.14, written by Peter Selinger 2001-2017
</metadata>
<g transform="translate(0.000000,1947.000000) scale(0.100000,-0.100000)"
fill="#000000" stroke="none">
<path d="M7707 15089 c7 -7 15 -10 18 -7 3 3 -2 9 -12 12 -14 6 -15 5 -6 -5z"/>
<path d="M7745 15070 c3 -4 14 -10 25 -13 11 -3 18 -2 15 3 -3 4 -14 10 -25
13 -11 3 -18 2 -15 -3z"/>
<path d="M9728 15075 c-1 -2 -39 -6 -83 -10 -44 -3 -107 -10 -140 -15 -33 -5
-78 -12 -100 -16 -35 -5 -110 -20 -276 -56 -42 -9 -45 -12 -41 -35 4 -20 9
-23 26 -19 32 10 236 54 276 61 19 3 46 7 60 10 14 3 48 8 75 11 28 3 61 7 75
9 166 22 534 22 700 0 19 -3 58 -8 85 -11 28 -3 57 -7 65 -9 124 -23 189 -36
207 -39 100 -20 333 -91 453 -138 285 -112 613 -296 814 -458 517 -415 868
-901 1077 -1493 39 -111 105 -348 115 -416 3 -20 9 -52 14 -71 5 -19 11 -55
14 -80 21 -174 22 -180 47 -180 19 0 20 4 15 53 -38 365 -151 749 -322 1090
-164 327 -353 588 -618 852 -83 83 -165 162 -181 175 -17 14 -53 43 -80 66
-212 174 -516 355 -800 474 -214 91 -523 179 -720 205 -22 3 -49 7 -60 10 -11
2 -47 7 -80 10 -33 4 -71 9 -85 12 -27 5 -526 13 -532 8z"/>
<path d="M8010 14942 c274 -137 492 -254 485 -260 -2 -3 -10 0 -17 5 -22 18
-339 175 -344 171 -2 -3 38 -25 89 -51 232 -115 727 -392 1057 -592 107 -64
211 -126 230 -137 19 -11 54 -33 78 -49 24 -16 45 -29 47 -29 20 0 1552 -979
1618 -1034 l22 -18 -25 14 c-129 77 -390 235 -410 248 -14 10 -44 28 -66 41
-23 13 -121 71 -218 129 -227 135 -198 118 -437 258 -204 119 -572 330 -679
389 -30 16 -111 62 -180 100 -131 73 -170 94 -390 213 -272 147 -865 440 -889
440 -3 0 127 -67 289 -148 162 -81 315 -159 340 -173 25 -15 88 -49 140 -76
98 -52 120 -64 305 -168 141 -79 169 -95 290 -165 55 -32 116 -67 135 -78 322
-183 1340 -797 1340 -808 0 -3 -24 8 -52 24 -29 17 -69 39 -88 50 -19 10 -123
69 -230 129 -218 123 -266 150 -360 201 -36 19 -78 42 -95 52 -16 9 -68 38
-115 62 -47 25 -148 79 -225 120 -374 200 -807 418 -1000 503 -16 8 -70 32
-119 55 -49 22 -91 39 -93 36 -3 -3 11 -12 30 -20 107 -44 661 -318 772 -381
22 -12 85 -46 140 -75 83 -44 288 -155 445 -243 464 -258 1468 -847 1445 -847
-6 0 -19 6 -30 13 -23 16 -55 28 -55 22 0 -2 30 -19 68 -38 105 -52 428 -234
492 -277 14 -10 176 -110 360 -222 389 -238 499 -308 485 -308 -9 0 -46 20
-150 79 -38 22 -611 347 -993 563 -96 54 -178 98 -183 98 -5 0 -9 5 -9 10 0 6
-4 10 -9 10 -4 0 -93 48 -197 106 -104 59 -209 118 -234 132 -25 14 -189 106
-365 205 -176 99 -342 192 -370 207 -27 15 -187 104 -355 197 -168 93 -336
187 -375 208 -38 21 -104 57 -145 80 -41 23 -102 57 -135 75 -33 18 -103 56
-155 85 -96 53 -176 96 -285 155 -33 17 -73 40 -90 50 -16 9 -74 41 -129 69
-54 29 -112 60 -130 70 -17 10 -76 42 -131 71 -55 29 -113 60 -130 70 -16 9
-91 49 -165 87 -74 39 -182 95 -240 125 -58 30 -171 90 -252 132 -82 43 -148
75 -148 73 0 -3 91 -53 203 -112 238 -127 314 -168 382 -205 28 -16 79 -44
115 -62 36 -19 103 -56 149 -81 46 -26 85 -47 87 -47 3 0 21 -11 42 -23 20
-13 73 -43 117 -67 44 -24 134 -73 200 -110 66 -37 140 -78 165 -92 123 -68
324 -181 490 -276 102 -58 205 -116 230 -130 46 -26 764 -436 878 -501 35 -20
80 -45 100 -57 20 -12 87 -50 147 -85 61 -35 131 -75 158 -89 26 -14 57 -33
70 -43 14 -12 5 -9 -23 6 -25 13 -119 64 -210 112 -91 48 -196 105 -235 125
-69 37 -162 86 -340 180 -49 26 -128 68 -175 92 -47 25 -139 74 -205 108 -177
92 -345 180 -475 247 -289 151 -812 414 -816 410 -2 -2 46 -29 108 -60 62 -32
158 -81 213 -110 55 -29 159 -84 230 -122 72 -37 153 -80 180 -95 28 -15 100
-53 160 -85 61 -32 149 -80 198 -107 48 -26 89 -48 91 -48 3 0 31 -15 63 -33
32 -18 123 -69 203 -112 196 -106 214 -115 455 -247 116 -63 241 -132 278
-152 37 -20 84 -46 105 -58 20 -11 120 -67 222 -123 102 -56 206 -114 233
-129 89 -49 142 -78 207 -114 36 -19 70 -39 75 -45 6 -5 -159 76 -365 181
-1319 669 -3282 1650 -3495 1747 -22 10 -44 21 -50 23 -5 3 -8 3 -5 0 3 -4
185 -97 405 -208 461 -233 710 -360 1280 -655 77 -40 221 -114 320 -165 99
-51 240 -124 313 -161 280 -146 404 -210 592 -307 107 -55 247 -128 310 -161
63 -33 170 -89 237 -123 67 -34 120 -64 119 -66 -3 -3 -79 34 -540 257 -115
55 -210 101 -211 101 -1 0 -101 48 -220 106 -120 58 -250 120 -289 139 -39 18
-152 72 -251 120 -223 108 -360 174 -540 260 -77 37 -205 99 -285 138 -260
125 -375 180 -380 182 -6 2 -229 109 -365 176 -56 27 -105 49 -110 49 -9 0
592 -300 1602 -800 238 -118 431 -215 429 -217 -3 -3 -55 20 -266 120 -73 34
-160 75 -305 142 -38 18 -108 51 -155 73 -47 21 -179 83 -295 137 -115 54
-253 118 -305 142 -231 110 -280 133 -284 133 -2 0 -74 34 -161 75 -87 42
-159 74 -161 72 -3 -3 137 -72 406 -200 63 -30 192 -92 285 -137 246 -119 442
-214 590 -285 218 -104 371 -179 560 -270 227 -110 407 -197 560 -270 66 -31
123 -62 127 -68 4 -6 10 -8 14 -5 4 4 19 -1 33 -10 14 -10 91 -50 171 -89 242
-117 336 -164 320 -159 -22 7 -546 238 -875 386 -22 10 -103 46 -180 80 -77
34 -158 70 -180 80 -22 10 -103 46 -180 80 -77 34 -158 70 -180 80 -22 10
-121 54 -220 98 -99 44 -297 132 -440 197 -143 64 -273 123 -290 130 -57 25
-300 137 -418 192 -65 30 -120 53 -122 51 -3 -3 498 -242 715 -340 19 -9 80
-37 135 -63 84 -40 221 -103 645 -297 30 -14 82 -38 115 -53 33 -15 107 -50
165 -77 58 -28 114 -54 125 -58 11 -4 162 -73 335 -153 338 -155 622 -286 734
-336 38 -17 67 -34 64 -37 -3 -3 -45 13 -93 35 -48 23 -91 38 -96 35 -5 -3 -9
0 -9 7 0 7 -3 9 -6 6 -4 -4 -20 3 -35 14 -16 11 -29 18 -29 15 0 -7 -421 173
-665 284 -22 10 -110 48 -195 85 -85 37 -173 76 -195 86 -22 10 -159 70 -305
134 -146 65 -283 125 -305 135 -22 10 -215 97 -430 193 -449 201 -706 318
-854 388 -57 27 -105 49 -107 49 -2 0 -83 39 -181 86 -175 85 -233 111 -222
100 13 -13 423 -212 804 -391 39 -18 124 -58 190 -90 66 -31 134 -63 150 -70
17 -7 75 -35 130 -60 87 -41 507 -235 680 -315 110 -50 178 -81 495 -225 173
-78 349 -158 390 -177 41 -19 145 -65 231 -104 87 -38 155 -72 152 -76 -2 -4
3 -5 11 -2 9 3 16 1 16 -5 0 -6 3 -10 8 -10 21 4 32 -2 26 -13 -5 -8 -2 -9 11
-5 11 5 23 1 32 -10 8 -10 12 -12 8 -6 -4 9 -1 11 9 7 9 -3 13 -10 10 -15 -3
-5 2 -6 10 -3 10 4 16 1 16 -7 0 -7 3 -9 7 -6 3 4 12 -1 20 -11 8 -9 12 -11 8
-4 -9 18 6 15 22 -5 8 -10 12 -12 8 -5 -5 10 -1 10 19 1 14 -7 23 -15 21 -19
-3 -5 2 -11 11 -14 10 -4 13 -2 8 6 -5 8 -2 9 10 5 10 -4 21 -7 24 -7 4 0 0
-5 -8 -11 -12 -8 -12 -9 5 -8 29 4 66 -11 59 -23 -4 -6 1 -8 12 -5 11 4 30 0
43 -7 20 -11 21 -14 7 -19 -10 -4 -15 -3 -12 2 3 5 -4 9 -17 9 -55 -1 -768
281 -1192 472 -22 10 -103 46 -180 80 -77 34 -158 70 -180 80 -22 10 -80 36
-130 58 -49 22 -119 53 -155 69 -36 17 -99 45 -140 63 -41 18 -145 64 -230
102 -85 39 -220 99 -300 135 -80 36 -170 77 -200 90 -30 14 -73 33 -95 43 -22
9 -60 27 -85 38 -187 86 -334 151 -337 149 -3 -4 111 -58 422 -202 39 -18 99
-46 135 -63 36 -16 134 -62 219 -102 246 -114 300 -139 401 -185 52 -23 144
-66 204 -94 59 -28 109 -51 111 -51 1 0 45 -20 96 -44 188 -88 340 -156 349
-156 5 0 12 -4 15 -10 4 -6 -4 -6 -22 1 -121 46 -848 337 -1126 450 -92 38
-169 69 -171 69 -2 0 -25 10 -52 22 -27 12 -51 23 -54 23 -3 1 -23 9 -45 19
-22 10 -72 31 -112 46 -39 16 -91 38 -115 49 -24 11 -72 32 -108 47 -36 14
-84 35 -108 46 -23 12 -45 19 -47 16 -6 -5 30 -22 420 -190 107 -47 118 -51
300 -128 94 -39 184 -77 200 -85 17 -7 102 -43 190 -80 87 -36 162 -69 165
-72 3 -3 -4 -3 -15 1 -99 39 -742 251 -985 325 -74 23 -146 46 -160 51 -50 19
-449 130 -462 129 -7 0 30 -13 82 -29 52 -15 136 -40 185 -55 50 -14 97 -28
105 -30 77 -17 1073 -359 1555 -534 61 -22 153 -55 205 -74 279 -101 958 -376
1154 -467 48 -22 92 -40 98 -40 6 0 9 -3 5 -6 -6 -6 -73 17 -152 52 -22 10
-46 17 -52 15 -7 -1 -13 3 -13 8 0 6 -7 8 -15 5 -8 -4 -15 -1 -15 6 0 6 -4 9
-9 6 -4 -3 -109 31 -232 75 -123 44 -251 89 -284 100 -56 20 -609 214 -795
281 -47 16 -121 43 -165 58 -44 16 -151 54 -238 85 -88 31 -161 55 -163 53 -3
-4 354 -137 946 -354 63 -23 257 -95 430 -159 173 -64 351 -130 395 -146 446
-161 586 -217 600 -236 13 -19 -36 -5 -307 87 -453 152 -612 208 -1133 395
-66 24 -160 57 -210 75 -49 17 -99 35 -110 40 -11 6 -58 23 -105 40 -219 80
-837 323 -904 356 -16 8 -31 12 -33 10 -10 -10 640 -276 1092 -447 116 -44
219 -83 230 -88 43 -18 165 -64 270 -100 33 -12 69 -25 80 -30 11 -5 79 -30
150 -56 72 -25 146 -52 165 -60 19 -8 53 -19 75 -26 22 -6 44 -15 49 -20 5 -4
-25 3 -65 16 -41 13 -105 33 -144 45 -38 12 -131 41 -205 65 -74 24 -223 71
-330 105 -107 34 -249 79 -315 100 -588 188 -660 211 -1040 334 -77 25 -143
46 -147 46 -4 1 -44 15 -89 31 -45 16 -86 28 -91 27 -10 -4 54 -25 807 -279
275 -93 496 -168 490 -169 -5 0 -50 12 -100 26 -135 38 -694 191 -765 209
-421 107 -535 135 -543 132 -5 -1 42 -15 105 -31 62 -15 142 -36 177 -47 35
-11 76 -21 90 -24 14 -3 58 -14 96 -25 39 -12 77 -23 85 -25 69 -17 702 -198
895 -257 55 -16 116 -34 135 -40 19 -5 103 -30 185 -55 83 -25 157 -47 165
-48 8 -2 42 -12 75 -23 33 -11 167 -53 297 -93 131 -40 236 -75 233 -77 -3 -4
-81 17 -145 39 -55 18 -565 165 -750 215 -30 8 -109 30 -175 48 -66 19 -133
37 -150 41 -16 5 -34 9 -40 11 -194 55 -463 127 -595 159 -73 18 -114 28 -120
30 -49 16 -352 86 -356 82 -2 -2 69 -22 158 -45 232 -59 394 -103 623 -167
110 -31 214 -60 230 -65 158 -43 757 -220 950 -280 55 -17 127 -39 160 -49
355 -108 559 -174 563 -182 2 -5 11 -5 20 -2 12 4 14 3 7 -5 -8 -8 -27 -6 -73
8 -35 11 -73 22 -85 24 -12 2 -44 11 -72 20 -45 14 -871 249 -1325 376 -102
29 -255 72 -340 97 -85 25 -168 49 -185 53 -49 12 -739 209 -804 229 -49 15
-61 16 -65 5 -4 -9 15 -19 62 -33 138 -41 538 -153 556 -157 10 -2 48 -12 85
-23 56 -18 295 -87 326 -95 46 -12 111 -30 165 -47 36 -10 234 -66 440 -124
206 -58 422 -119 480 -136 58 -16 113 -32 123 -34 10 -2 55 -15 100 -29 45
-14 135 -39 200 -57 65 -17 116 -33 114 -35 -6 -6 -235 55 -482 128 -38 11
-79 22 -90 23 -11 2 -45 11 -75 20 -30 9 -89 25 -130 36 -41 11 -106 29 -145
40 -38 11 -113 32 -165 45 -52 14 -140 38 -195 54 -117 32 -405 111 -420 115
-5 1 -35 9 -65 18 -30 8 -98 27 -150 41 -52 14 -160 43 -240 65 -506 139 -514
141 -522 128 -5 -8 1 -14 20 -19 15 -3 104 -27 197 -53 94 -26 193 -53 220
-60 409 -110 517 -140 565 -155 14 -4 79 -22 145 -40 66 -18 175 -48 243 -67
68 -19 131 -36 140 -38 9 -2 94 -24 187 -50 94 -26 175 -48 180 -50 6 -1 35
-9 65 -18 30 -9 107 -30 170 -47 153 -41 276 -74 385 -105 50 -14 99 -27 110
-29 11 -3 108 -29 215 -59 107 -30 282 -78 388 -107 106 -29 190 -55 188 -57
-4 -4 -162 37 -361 93 -60 17 -310 84 -575 154 -107 29 -224 60 -260 70 -36
11 -117 33 -180 49 -63 17 -155 41 -205 55 -49 13 -126 34 -170 46 -44 12 -87
23 -95 25 -8 2 -82 22 -165 44 -82 23 -199 55 -260 71 -60 16 -186 50 -280 76
-93 25 -177 47 -185 49 -8 2 -143 38 -300 80 -157 42 -292 78 -300 80 -8 2
-64 17 -124 34 -60 17 -111 31 -113 31 -2 0 -3 -7 -3 -15 0 -8 3 -15 6 -15 3
0 199 -52 436 -116 236 -63 437 -117 446 -119 10 -2 67 -18 127 -35 61 -16
119 -32 130 -35 11 -2 205 -54 430 -115 615 -166 891 -240 912 -245 10 -3 108
-29 218 -59 523 -141 811 -218 825 -221 55 -11 338 -93 452 -131 76 -25 143
-42 150 -38 9 5 10 4 3 -4 -11 -12 -79 4 -735 174 -140 36 -262 67 -270 69 -8
2 -114 29 -235 60 -350 90 -719 184 -1150 294 -220 56 -440 113 -490 126 -49
13 -232 60 -405 104 -173 45 -435 112 -582 150 -194 50 -268 65 -272 56 -3 -8
17 -18 57 -29 153 -40 1178 -302 1217 -312 8 -2 112 -28 230 -59 118 -30 224
-57 235 -60 11 -2 92 -23 180 -46 88 -22 165 -42 170 -43 6 -1 16 -5 23 -9 6
-5 12 -6 12 -3 0 3 21 -1 48 -9 26 -8 128 -34 226 -59 99 -25 182 -49 185 -52
3 -3 -5 -3 -19 0 -70 17 -899 220 -985 242 -55 14 -109 27 -120 30 -11 2 -29
6 -40 8 -11 3 -175 43 -365 90 -602 148 -879 216 -908 221 -16 2 -47 11 -70
19 -34 12 -41 12 -46 1 -3 -10 11 -18 47 -28 43 -12 789 -196 822 -203 11 -2
381 -93 405 -99 8 -3 56 -14 105 -25 50 -12 97 -23 105 -25 8 -2 155 -38 325
-80 171 -42 317 -78 325 -80 8 -2 146 -35 305 -75 160 -39 356 -87 437 -106
81 -19 158 -39 170 -44 22 -10 22 -10 -2 -5 -25 5 -126 29 -280 65 -71 17
-225 52 -280 65 -30 7 -1301 302 -1335 310 -11 3 -38 9 -60 13 -22 5 -179 42
-350 82 -170 39 -317 73 -325 75 -8 2 -94 22 -190 44 -96 23 -215 51 -264 62
-60 14 -91 18 -98 11 -7 -7 2 -14 29 -21 35 -10 224 -54 280 -66 41 -9 1188
-275 1248 -290 33 -8 188 -44 345 -80 157 -37 362 -84 455 -106 94 -22 240
-55 325 -75 132 -30 183 -44 157 -44 -8 0 -218 46 -427 94 -85 19 -166 37
-180 40 -14 2 -86 18 -160 35 -74 16 -146 32 -160 35 -14 2 -187 41 -385 85
-715 158 -1321 292 -1347 296 -14 3 -50 11 -80 19 -30 8 -57 10 -62 5 -5 -5
-7 -11 -5 -14 6 -6 184 -46 357 -81 13 -3 80 -18 150 -34 70 -16 138 -31 152
-34 14 -2 120 -25 235 -51 116 -26 217 -48 225 -50 36 -7 719 -159 860 -191
85 -19 169 -37 185 -40 17 -3 73 -16 125 -29 97 -25 53 -24 -55 1 -67 15 -375
80 -418 88 -15 2 -35 7 -45 10 -9 3 -28 7 -42 10 -23 4 -217 43 -250 51 -8 2
-51 11 -95 20 -44 9 -87 18 -95 20 -8 2 -51 10 -95 20 -44 9 -165 34 -270 57
-104 22 -201 42 -215 45 -14 2 -117 24 -230 48 -113 24 -216 46 -230 48 -14 3
-73 15 -133 27 -100 21 -134 22 -111 2 5 -5 158 -39 339 -77 182 -37 377 -78
435 -91 58 -12 116 -25 130 -27 47 -9 425 -88 465 -97 57 -14 281 -60 324 -66
20 -3 39 -8 42 -10 3 -2 21 -6 40 -9 19 -3 84 -17 144 -30 61 -13 166 -36 235
-50 69 -14 154 -32 190 -40 36 -7 82 -16 104 -19 21 -4 42 -8 46 -11 3 -2 22
-7 41 -10 19 -3 41 -8 49 -10 8 -2 30 -7 47 -10 18 -3 61 -12 95 -20 35 -8 79
-17 98 -20 19 -3 42 -8 50 -10 8 -2 26 -6 40 -9 139 -27 291 -61 283 -63 -6
-2 -79 10 -164 27 -84 17 -166 33 -183 36 -17 3 -74 14 -126 24 -52 11 -108
22 -125 25 -28 4 -41 7 -105 20 -71 14 -87 17 -105 20 -11 2 -76 15 -145 28
-177 36 -580 115 -610 121 -14 2 -128 24 -255 49 -126 25 -241 48 -255 50 -14
3 -140 28 -280 55 -140 28 -268 53 -285 56 -16 3 -106 21 -200 40 -93 19 -187
37 -207 40 -21 3 -57 10 -80 15 -24 6 -59 13 -78 16 -19 3 -42 8 -50 10 -49
13 -91 14 -88 3 4 -11 176 -52 299 -71 19 -3 45 -8 59 -11 14 -4 39 -9 55 -11
17 -3 73 -14 125 -25 52 -11 106 -21 120 -24 14 -3 50 -10 80 -16 30 -6 69
-13 85 -16 17 -3 107 -20 200 -39 94 -19 188 -37 210 -40 22 -4 60 -11 85 -17
25 -5 56 -12 70 -14 85 -15 352 -72 337 -73 -10 -1 -50 5 -90 13 -71 14 -290
56 -502 96 -60 11 -120 22 -131 24 -12 3 -37 7 -55 10 -19 3 -47 8 -64 11 -76
15 -396 75 -442 84 -29 6 -74 13 -100 17 -26 3 -50 8 -53 9 -3 2 -59 13 -125
25 -66 12 -130 24 -142 27 -16 3 -23 1 -23 -9 0 -10 22 -19 73 -28 39 -8 74
-14 77 -15 3 -1 28 -5 55 -10 28 -4 55 -9 60 -10 30 -7 186 -35 220 -40 22 -4
56 -10 75 -15 19 -5 51 -11 70 -14 19 -3 82 -14 140 -25 58 -11 118 -22 134
-25 16 -3 52 -10 80 -15 28 -6 65 -13 81 -16 106 -20 143 -27 170 -31 17 -3
75 -14 130 -25 55 -10 127 -24 160 -30 33 -6 80 -15 105 -20 25 -5 167 -31
315 -59 149 -27 293 -54 320 -59 28 -6 77 -15 110 -21 33 -5 71 -12 85 -15 14
-3 50 -9 80 -15 30 -6 69 -13 85 -16 17 -3 74 -14 128 -25 53 -10 112 -21 130
-24 17 -3 93 -17 167 -31 74 -14 146 -28 160 -30 68 -12 303 -57 365 -69 39
-7 90 -17 115 -20 24 -4 47 -8 50 -10 3 -2 26 -6 50 -10 25 -3 52 -8 60 -10 8
-2 29 -7 45 -10 17 -2 62 -12 100 -20 l70 -15 -70 5 c-76 6 -157 18 -275 40
-106 20 -289 53 -330 60 -44 7 -137 24 -170 30 -14 3 -50 9 -80 15 -30 6 -66
12 -80 15 -14 3 -41 8 -60 11 -19 3 -80 14 -135 24 -55 11 -116 22 -135 25
-19 3 -168 30 -330 60 -162 30 -311 57 -330 60 -19 3 -107 19 -195 35 -152 28
-180 33 -250 45 -16 3 -52 10 -80 15 -27 5 -61 11 -75 14 -14 2 -63 11 -110
20 -47 8 -101 18 -120 21 -19 3 -42 8 -50 10 -8 2 -33 6 -55 9 -22 4 -51 8
-65 11 -14 3 -36 7 -50 10 -14 3 -47 9 -75 14 -27 6 -63 12 -80 15 -16 3 -41
7 -55 10 -42 9 -73 15 -115 21 -22 3 -87 14 -145 25 -141 26 -144 27 -304 56
-77 13 -150 27 -163 30 -17 5 -23 2 -23 -10 0 -9 6 -16 13 -17 23 -1 72 -10
227 -39 163 -31 321 -60 355 -65 11 -2 47 -8 80 -14 56 -11 72 -13 135 -25 14
-2 43 -7 65 -11 22 -4 49 -9 60 -11 11 -2 70 -13 130 -24 150 -28 314 -58 350
-64 17 -2 66 -11 110 -20 44 -8 94 -18 110 -21 17 -2 56 -10 88 -15 32 -6 72
-13 90 -15 18 -3 43 -7 57 -10 14 -3 72 -14 130 -25 58 -10 130 -23 160 -29
30 -5 71 -12 90 -15 19 -3 46 -8 60 -11 57 -12 348 -66 380 -70 19 -2 46 -7
60 -10 14 -3 36 -8 50 -11 47 -8 235 -42 270 -48 19 -3 46 -8 60 -11 14 -3 79
-15 145 -26 149 -25 162 -30 60 -24 -115 8 -169 14 -260 31 -44 8 -208 37
-365 65 -157 27 -368 65 -470 84 -102 18 -201 36 -220 39 -19 3 -46 8 -60 11
-14 3 -41 7 -60 11 -19 3 -55 9 -80 14 -25 5 -61 12 -80 14 -19 3 -46 8 -60
11 -14 3 -77 14 -140 25 -63 11 -126 22 -140 25 -14 3 -75 14 -135 24 -61 11
-174 31 -250 45 -77 14 -153 28 -170 31 -25 4 -110 19 -447 80 -16 3 -40 7
-55 10 -16 3 -106 19 -202 36 -96 17 -179 31 -184 32 -5 1 -11 -3 -14 -10 -5
-13 70 -29 312 -69 35 -6 336 -60 380 -68 17 -3 57 -10 90 -16 33 -5 71 -12
85 -15 14 -3 36 -8 50 -10 85 -14 212 -37 250 -45 25 -5 59 -11 75 -14 17 -2
109 -18 205 -36 158 -28 302 -54 370 -65 14 -3 35 -7 46 -9 12 -2 37 -7 55
-10 19 -3 45 -8 59 -10 14 -3 77 -14 140 -26 63 -11 126 -22 140 -25 28 -6 38
-8 165 -29 50 -9 101 -18 115 -21 14 -3 77 -14 140 -26 63 -11 124 -22 135
-24 11 -2 44 -7 73 -11 64 -8 76 -20 19 -17 -160 10 -451 3 -529 -12 -32 -6
-78 -26 -78 -34 -1 -3 -11 -19 -24 -34 l-23 -29 -203 87 c-111 47 -204 85
-206 82 -2 -2 5 -16 17 -31 l21 -27 -58 30 c-59 29 -253 95 -260 88 -3 -2 2
-20 11 -40 l15 -35 -57 34 c-87 52 -483 197 -498 182 -3 -3 2 -22 10 -43 9
-20 15 -39 13 -41 -2 -2 -47 19 -100 47 -200 102 -451 186 -648 215 -19 3 -40
7 -47 9 -6 2 -49 7 -95 10 l-83 7 55 -38 c30 -21 82 -65 115 -98 l60 -61 -30
-6 c-33 -7 -470 -3 -482 4 -5 2 -17 1 -27 -2 -32 -12 115 -97 344 -199 21 -9
16 -10 -30 -6 l-55 6 38 -27 c102 -71 328 -147 502 -170 186 -23 243 -35 184
-35 -59 -1 54 -32 216 -59 83 -14 230 -25 353 -25 56 0 102 -3 102 -7 0 -4
-42 -21 -92 -39 -215 -75 -491 -226 -669 -366 -128 -102 -284 -291 -354 -431
-53 -107 -69 -180 -68 -313 1 -139 23 -254 63 -336 31 -64 111 -151 167 -181
22 -11 37 -29 44 -53 101 -309 398 -511 744 -504 119 2 487 14 600 19 81 3
550 17 618 18 15 0 24 4 20 7 -7 6 -336 108 -368 114 -18 4 -369 117 -484 157
-63 21 -116 37 -119 34 -2 -2 9 -26 25 -52 55 -89 63 -84 -115 -77 -297 10
-304 11 -377 38 -84 32 -153 75 -218 135 -83 77 -84 76 66 77 123 1 374 11
477 19 25 2 96 6 158 10 62 3 120 8 130 9 9 2 68 7 130 11 62 3 121 8 130 10
9 1 69 6 132 10 63 4 126 9 140 10 14 1 43 3 64 4 45 1 45 7 1 14 -65 11 -615
134 -859 192 -82 20 -150 34 -152 33 -1 -2 19 -28 46 -58 27 -30 47 -57 45
-59 -10 -10 -582 -12 -607 -2 l-27 10 4 110 c2 60 8 136 14 168 6 32 12 69 15
83 2 14 16 60 30 104 54 160 134 274 315 448 214 206 409 328 645 404 105 34
118 36 134 22 13 -12 39 -15 117 -13 56 1 114 5 130 9 136 29 152 30 164 8 14
-27 27 -31 170 -47 126 -14 199 -19 471 -31 80 -3 177 -7 215 -9 39 -2 96 -4
128 -4 41 -1 56 -4 51 -13 -5 -7 -3 -8 7 -3 15 10 289 15 289 6 0 -3 125 -6
278 -6 152 0 322 -2 377 -5 100 -5 100 -5 40 -12 -33 -4 -71 -10 -85 -12 -14
-3 -117 -19 -230 -37 -113 -17 -208 -35 -213 -39 -4 -3 55 3 130 16 76 12 159
25 183 28 25 3 56 8 70 10 14 3 48 7 75 11 28 3 93 13 145 21 87 13 229 19
219 10 -2 -2 -26 -7 -54 -10 -27 -4 -120 -18 -205 -32 -85 -14 -166 -27 -180
-29 -143 -21 -180 -29 -180 -35 0 -4 17 -4 38 0 20 5 60 11 87 14 44 6 137 21
188 31 9 2 17 -1 17 -6 0 -5 -10 -9 -21 -9 -37 0 -149 -23 -149 -31 0 -4 17
-3 38 1 20 5 57 11 82 14 25 3 54 7 65 10 11 2 45 7 75 11 30 4 64 9 75 11 87
16 404 54 483 58 97 4 98 -9 2 -19 -36 -4 -67 -8 -70 -10 -3 -2 -26 -6 -50
-10 -56 -8 -158 -24 -185 -29 -45 -8 -92 -16 -130 -21 -22 -4 -51 -8 -65 -11
-14 -2 -41 -7 -60 -10 -19 -2 -46 -7 -60 -10 -14 -2 -36 -6 -50 -9 -14 -2 -97
-16 -185 -30 -88 -14 -191 -32 -230 -40 -38 -7 -90 -16 -115 -20 -79 -11 -186
-33 -168 -34 10 0 138 19 285 43 148 24 286 47 308 50 22 4 81 13 130 21 50 8
110 17 135 21 25 3 54 8 65 10 11 2 40 7 65 9 25 3 52 8 60 10 8 2 35 7 60 10
25 3 68 10 95 15 28 5 68 11 90 14 110 14 182 26 201 33 8 3 14 0 14 -5 0 -6
-26 -14 -57 -18 -32 -5 -60 -8 -63 -9 -3 -1 -30 -5 -60 -9 -83 -12 -93 -13
-260 -41 -85 -14 -166 -28 -180 -30 -30 -4 -205 -33 -240 -40 -26 -4 -371 -62
-425 -71 -33 -5 -123 -21 -170 -30 -16 -3 -38 -6 -47 -7 -10 -1 -18 -5 -18
-10 0 -5 8 -6 18 -3 9 3 31 8 47 10 17 3 41 8 55 10 14 3 43 8 65 11 22 3 96
15 165 26 69 11 139 22 155 25 17 3 55 9 85 14 30 5 73 12 95 15 22 4 51 8 65
11 14 2 41 6 60 9 19 3 46 7 59 10 13 2 49 7 80 11 31 3 58 8 61 9 3 2 30 6
60 10 30 3 62 8 70 10 8 2 35 7 60 10 25 3 70 10 100 15 92 15 133 21 175 26
22 2 80 11 129 19 49 9 91 14 93 11 2 -2 -36 -11 -84 -20 -48 -9 -98 -18 -109
-20 -12 -3 -37 -7 -56 -10 -19 -3 -92 -17 -164 -30 -173 -34 -402 -76 -439
-82 -16 -3 -52 -9 -80 -14 -27 -5 -61 -12 -75 -14 -14 -3 -86 -16 -160 -30
-74 -14 -151 -28 -170 -31 -19 -3 -53 -10 -75 -15 -22 -5 -58 -11 -80 -14 -34
-6 -158 -28 -230 -42 -11 -2 -36 -6 -55 -10 -70 -11 -91 -16 -88 -20 3 -2 31
1 64 6 32 6 74 13 93 16 18 3 43 8 55 10 26 5 120 21 161 28 17 2 55 9 85 15
30 6 66 12 80 15 14 2 54 9 90 16 36 6 76 13 90 16 14 2 54 9 90 14 62 10 79
13 125 23 11 3 42 8 68 11 27 4 59 10 70 12 79 17 302 54 310 51 7 -2 -109
-26 -251 -52 -13 -2 -31 -6 -40 -9 -9 -3 -35 -7 -57 -11 -22 -3 -74 -12 -115
-21 -41 -8 -86 -17 -100 -19 -36 -6 -79 -14 -130 -25 -25 -5 -58 -12 -75 -14
-16 -3 -66 -12 -110 -20 -44 -9 -113 -21 -152 -28 -40 -6 -73 -15 -73 -19 0
-5 6 -7 13 -4 6 2 53 11 102 20 131 24 242 44 305 55 30 6 107 19 170 31 63
12 124 23 135 24 11 2 61 11 110 20 131 24 183 28 105 9 -36 -9 -245 -61 -465
-115 -220 -55 -409 -102 -420 -104 -11 -3 -40 -11 -65 -20 -80 -26 5 -8 280
60 146 36 275 67 288 70 12 2 30 6 40 9 9 3 28 7 42 10 14 2 74 16 134 31 60
15 116 28 125 30 15 3 317 72 351 80 15 3 192 44 220 50 8 2 37 8 64 15 82 18
62 4 -26 -19 -46 -12 -90 -23 -98 -25 -28 -7 -428 -119 -545 -152 -27 -8 -57
-16 -65 -18 -34 -9 -584 -168 -675 -196 -54 -17 -107 -32 -119 -35 -45 -9
-248 -74 -254 -81 -4 -4 4 -4 18 0 14 4 39 11 55 16 17 4 134 38 260 75 127
37 284 82 350 100 66 18 187 52 269 75 81 23 156 43 167 45 19 4 102 28 178
51 25 8 52 14 60 13 14 0 -210 -71 -474 -150 -59 -18 -235 -72 -585 -180 -36
-11 -112 -35 -170 -54 -58 -18 -145 -45 -193 -60 -49 -15 -87 -28 -85 -30 2
-3 46 9 98 25 52 15 142 43 200 60 58 18 164 50 235 72 123 38 242 73 275 83
8 2 130 38 270 80 235 70 331 98 784 229 87 26 160 45 163 43 2 -3 -557 -192
-602 -203 -5 -2 -71 -24 -145 -49 -74 -25 -162 -54 -195 -65 -96 -29 -231 -78
-220 -79 6 -1 84 23 175 53 232 75 433 139 445 142 6 1 66 21 134 43 68 23
126 39 128 37 4 -3 -7 -8 -112 -47 -27 -10 -183 -71 -345 -134 -162 -64 -299
-117 -305 -119 -5 -2 -22 -8 -37 -14 -15 -6 -116 -47 -225 -91 -109 -44 -254
-103 -323 -131 -69 -28 -159 -65 -200 -82 -78 -31 -103 -46 -60 -33 22 6 142
54 225 91 17 7 62 25 100 40 39 14 84 32 100 40 47 21 660 258 875 339 209 78
316 118 530 196 74 28 146 54 159 60 13 5 25 8 27 6 2 -2 -204 -93 -459 -202
-254 -109 -484 -208 -512 -220 -27 -13 -151 -66 -275 -120 -229 -99 -349 -151
-430 -188 -69 -31 -133 -58 -159 -68 -13 -5 -21 -12 -19 -15 3 -3 30 6 59 19
30 14 131 57 224 97 94 40 247 105 340 145 94 40 274 117 400 170 304 128 552
232 594 251 18 8 35 13 37 11 2 -1 -49 -27 -114 -57 -64 -30 -173 -81 -242
-113 -69 -33 -154 -73 -190 -89 -36 -17 -96 -45 -135 -63 -38 -18 -117 -55
-175 -82 -58 -28 -127 -61 -155 -73 -27 -13 -104 -48 -170 -80 -66 -31 -147
-70 -180 -85 -322 -149 -465 -218 -462 -222 3 -3 73 29 305 138 46 21 85 39
87 39 1 0 55 25 120 55 64 30 118 55 119 55 2 0 56 25 120 55 64 30 118 55
120 55 2 0 57 25 121 55 65 31 139 65 164 77 116 52 175 80 257 119 49 23 127
59 174 79 47 21 119 54 160 73 226 105 270 126 270 122 0 -5 -583 -320 -845
-455 -88 -46 -221 -114 -295 -153 -74 -39 -295 -151 -490 -249 -195 -97 -350
-178 -345 -178 6 0 243 116 528 258 284 142 517 257 517 256 0 -1 -113 -69
-250 -150 -138 -82 -274 -164 -303 -182 -29 -17 -81 -50 -117 -71 -75 -46
-124 -84 -65 -51 58 32 88 51 195 116 82 49 167 100 295 174 17 9 82 48 145
85 63 37 180 104 260 147 80 44 160 89 178 100 17 11 32 17 32 14 0 -3 -26
-20 -57 -39 -204 -119 -824 -525 -838 -547 -3 -5 63 37 148 93 223 149 322
212 512 327 94 56 182 111 197 121 15 11 30 19 34 19 3 0 18 8 32 19 15 10 43
28 63 39 27 15 404 230 472 269 4 2 7 2 7 0 0 -2 -37 -28 -82 -57 -529 -338
-849 -549 -1173 -773 -347 -241 -775 -557 -775 -573 0 -3 36 24 80 58 183 144
477 352 840 597 107 72 202 136 210 141 8 6 105 69 215 140 173 111 249 159
374 238 56 35 9 -2 -100 -77 -63 -44 -134 -93 -159 -111 -212 -147 -752 -536
-794 -572 -12 -9 -135 -103 -223 -169 -29 -22 -53 -42 -53 -45 0 -3 15 6 33
19 17 14 91 68 162 122 72 53 137 102 145 108 48 39 532 379 710 500 63 43
160 110 215 148 108 75 158 105 115 69 -14 -11 -36 -29 -50 -38 -141 -95
-1238 -915 -1260 -942 -3 -3 -44 -36 -92 -74 -48 -37 -90 -72 -94 -77 -3 -5
63 44 148 109 275 212 588 446 893 667 83 59 173 125 200 145 106 78 155 112
155 107 0 -3 -24 -22 -52 -43 -29 -21 -58 -43 -64 -49 -6 -5 -24 -20 -40 -32
-16 -12 -62 -47 -101 -77 -116 -88 -665 -513 -698 -540 -16 -14 -34 -29 -40
-33 -42 -32 -284 -226 -340 -272 -38 -32 -85 -68 -102 -81 -18 -13 -33 -29
-33 -34 0 -7 3 -8 8 -1 8 12 183 152 467 374 44 34 87 68 95 74 8 7 33 26 55
42 22 16 42 32 45 35 9 10 298 229 615 467 171 128 315 236 320 240 6 5 30 23
55 42 94 71 -12 -23 -170 -149 -85 -69 -157 -127 -160 -130 -3 -4 -42 -36 -87
-73 -46 -37 -120 -97 -165 -134 -46 -37 -85 -69 -88 -73 -3 -3 -30 -26 -60
-51 -238 -197 -359 -299 -355 -299 7 0 167 127 209 165 6 6 33 28 61 50 27 22
101 82 165 134 179 145 182 148 405 325 224 179 229 178 15 -3 -14 -12 -34
-29 -45 -39 -11 -10 -45 -38 -75 -62 -30 -25 -57 -47 -60 -50 -6 -6 -123 -105
-159 -135 -13 -11 -56 -47 -95 -81 -39 -33 -82 -70 -96 -81 -14 -12 -75 -63
-135 -114 -61 -52 -178 -150 -259 -219 -82 -69 -154 -130 -160 -135 -6 -6 -80
-68 -163 -139 -84 -71 -153 -131 -153 -134 0 -3 10 4 23 15 12 11 81 69 152
128 72 59 146 122 166 139 19 17 55 47 79 66 24 19 58 47 75 61 16 14 41 35
55 47 34 29 765 636 819 681 54 44 73 60 103 86 81 69 189 159 317 264 73 59
43 29 -99 -99 -85 -77 -158 -144 -245 -225 -18 -16 -46 -41 -61 -55 -16 -14
-96 -86 -179 -160 -82 -73 -183 -163 -224 -199 -41 -36 -93 -83 -115 -103 -23
-21 -44 -38 -48 -38 -5 0 -8 -5 -8 -11 0 -8 174 134 220 181 8 8 44 40 80 70
36 30 67 57 70 60 3 3 79 71 170 150 91 80 174 154 186 165 12 11 36 33 55 49
19 16 75 67 125 113 51 46 94 83 96 83 7 0 -341 -340 -717 -702 -131 -126
-155 -148 -324 -306 -63 -59 -123 -114 -132 -124 -9 -9 -44 -41 -78 -72 -33
-31 -57 -56 -53 -56 4 0 30 21 58 48 28 26 95 88 150 137 120 109 214 196 314
292 41 39 91 85 110 103 19 18 102 96 184 174 82 77 165 156 185 175 20 19
155 150 301 292 146 141 269 261 275 266 9 8 -108 -129 -135 -157 -8 -9 -58
-63 -110 -121 -98 -107 -574 -587 -668 -673 -29 -26 -52 -49 -50 -51 7 -8 225
200 533 509 181 182 310 306 286 276 -25 -30 -49 -59 -55 -65 -6 -5 -33 -37
-61 -70 -268 -321 -600 -664 -905 -933 -25 -22 -97 -81 -160 -132 -121 -97
-162 -133 -95 -85 40 29 246 194 255 205 3 3 21 18 40 34 178 144 570 539 825
831 39 44 75 85 80 91 6 6 30 35 55 64 25 30 61 72 80 95 19 23 49 59 65 80
17 21 35 43 40 49 6 6 46 56 89 111 l79 100 91 2 c129 2 177 19 400 142 145
80 278 188 369 298 49 60 57 76 57 111 0 69 -21 98 -79 108 -26 5 -61 -16 -98
-58 -93 -104 -177 -176 -250 -212 l-52 -26 -58 35 c-104 63 -278 104 -349 81
-16 -5 -28 8 -69 77 -54 90 -167 263 -242 372 -57 83 -248 338 -266 357 -7 7
-20 23 -28 35 -8 12 -36 46 -61 75 -25 29 -56 64 -68 78 -11 14 -42 50 -68 79
-153 178 -457 481 -622 621 -41 34 -82 69 -90 77 -23 21 -196 159 -230 183
-61 43 -28 11 53 -51 259 -201 641 -564 842 -803 28 -32 55 -64 60 -70 10 -11
92 -108 127 -151 58 -71 147 -185 144 -185 -2 0 -61 66 -132 148 -133 153
-512 537 -623 632 -35 30 -73 63 -85 73 -115 101 -349 289 -316 255 8 -9 73
-64 143 -122 71 -58 163 -136 205 -173 78 -70 449 -438 512 -508 43 -48 184
-210 214 -245 85 -100 279 -355 335 -440 20 -31 20 -32 1 -10 -28 33 -39 47
-89 110 -24 30 -64 79 -90 108 -25 30 -64 74 -86 100 -232 269 -639 674 -881
877 -32 27 -61 52 -64 55 -9 11 -265 216 -322 258 -99 73 -63 38 50 -49 97
-76 384 -319 490 -417 179 -164 712 -716 664 -688 -7 4 -34 31 -60 59 -141
153 -507 508 -662 643 -25 21 -47 41 -50 44 -53 53 -302 255 -475 385 -49 37
-96 72 -102 78 -7 5 -13 7 -13 5 0 -3 44 -39 98 -79 53 -41 99 -76 102 -79 3
-3 25 -21 50 -40 25 -19 56 -45 70 -56 14 -12 75 -63 135 -114 172 -146 315
-278 515 -479 176 -177 178 -183 6 -20 -105 99 -216 197 -325 289 -29 25 -59
50 -65 55 -23 22 -175 144 -266 215 -52 40 -101 77 -107 83 -7 5 -13 7 -13 4
0 -3 30 -29 68 -58 37 -30 69 -56 72 -59 3 -4 14 -13 26 -21 28 -19 92 -72
263 -218 145 -124 189 -163 349 -316 166 -158 531 -533 532 -547 0 -3 -37 31
-83 75 -136 134 -297 287 -386 367 -46 41 -91 82 -100 91 -86 83 -254 220
-262 212 -6 -6 29 -42 93 -98 212 -184 376 -334 508 -465 75 -74 100 -101 56
-60 -44 41 -83 78 -86 81 -5 5 -170 153 -239 214 -19 17 -39 35 -45 40 -6 6
-40 35 -76 65 -36 30 -67 57 -70 60 -10 10 -226 186 -320 261 -153 120 -350
264 -350 256 0 -3 38 -32 85 -66 46 -34 90 -67 97 -74 7 -7 29 -24 48 -37 39
-26 162 -125 226 -180 22 -19 52 -44 65 -54 26 -21 141 -118 149 -126 3 -3 37
-32 75 -65 39 -32 77 -66 86 -75 9 -8 51 -46 94 -85 175 -157 495 -467 495
-478 0 -6 -8 -1 -17 9 -15 17 -122 114 -262 239 -19 16 -39 35 -45 40 -31 29
-231 198 -296 252 -181 149 -226 185 -386 308 -169 131 -451 336 -403 293 14
-13 82 -64 150 -115 105 -77 342 -260 389 -300 8 -7 87 -72 175 -145 88 -72
162 -134 165 -137 3 -3 37 -33 75 -66 39 -33 72 -62 75 -65 3 -3 74 -68 158
-144 83 -76 152 -141 152 -143 0 -6 -131 98 -285 227 -273 230 -633 511 -960
751 -129 94 -285 201 -285 196 0 -3 44 -36 98 -73 90 -63 353 -256 378 -279 7
-5 44 -35 84 -65 87 -66 433 -341 440 -350 3 -3 40 -34 83 -69 42 -34 77 -64
77 -66 0 -3 -46 28 -101 68 -56 39 -127 90 -158 111 -31 22 -154 113 -274 203
-123 93 -222 161 -229 157 -6 -4 -8 -3 -5 4 4 5 -15 26 -42 46 -53 39 -71 46
-50 19 13 -16 12 -17 -3 -4 -10 7 -16 17 -13 21 5 8 -80 76 -122 98 -12 7 -27
18 -35 25 -14 13 -177 130 -268 191 -103 70 -5 -5 190 -145 107 -77 202 -147
210 -156 8 -8 -61 39 -155 104 -468 327 -1008 690 -1470 988 -49 32 -112 73
-140 90 -252 162 -744 456 -950 567 -149 80 -347 179 -350 176 -2 -2 49 -30
113 -63 142 -71 494 -272 632 -360 19 -12 64 -40 100 -62 458 -282 1080 -700
1781 -1198 615 -436 849 -604 849 -611 0 -4 -33 17 -385 246 -757 491 -1580
1002 -2199 1364 -144 85 -287 167 -317 184 -30 16 -106 58 -169 94 -63 35
-155 86 -205 113 -49 26 -115 61 -145 78 -80 43 -412 209 -503 251 -146 67
-93 36 123 -72z m1825 -1710 c-3 -3 -11 0 -18 7 -9 10 -8 11 6 5 10 -3 15 -9
12 -12z m60 -30 c-3 -3 -11 0 -18 7 -9 10 -8 11 6 5 10 -3 15 -9 12 -12z m40
-20 c-3 -3 -11 0 -18 7 -9 10 -8 11 6 5 10 -3 15 -9 12 -12z m1075 -468 c0 -2
-9 0 -20 6 -11 6 -20 13 -20 16 0 2 9 0 20 -6 11 -6 20 -13 20 -16z m831 -51
c13 -16 12 -17 -3 -4 -17 13 -22 21 -14 21 2 0 10 -8 17 -17z m530 -40 c13
-16 12 -17 -3 -4 -17 13 -22 21 -14 21 2 0 10 -8 17 -17z m-1036 -11 c-3 -3
-11 0 -18 7 -9 10 -8 11 6 5 10 -3 15 -9 12 -12z m-1150 -112 c13 -6 15 -9 5
-9 -8 0 -22 4 -30 9 -18 12 -2 12 25 0z m52 -16 c-3 -3 -12 -4 -19 -1 -8 3 -5
6 6 6 11 1 17 -2 13 -5z m2094 -91 c13 -16 12 -17 -3 -4 -17 13 -22 21 -14 21
2 0 10 -8 17 -17z m-2056 -23 c13 -5 14 -9 5 -9 -8 0 -24 4 -35 9 -13 5 -14 9
-5 9 8 0 24 -4 35 -9z m92 -26 c-3 -3 -12 -4 -19 -1 -8 3 -5 6 6 6 11 1 17 -2
13 -5z m345 -58 c81 -25 151 -46 154 -46 4 0 5 -2 2 -5 -5 -5 -205 50 -285 79
-22 8 -44 12 -47 9 -3 -4 -6 -1 -6 6 0 8 7 11 18 8 9 -2 83 -25 164 -51z
m-1707 18 c52 -12 54 -13 15 -9 -56 6 -103 15 -109 21 -8 8 34 3 94 -12z
m1035 -18 c8 -4 -1 -4 -20 -1 -19 3 -39 10 -44 15 -10 10 19 3 64 -14z m503 7
c-7 -2 -19 -2 -25 0 -7 3 -2 5 12 5 14 0 19 -2 13 -5z m-1440 -10 c-7 -2 -19
-2 -25 0 -7 3 -2 5 12 5 14 0 19 -2 13 -5z m61 -12 c3 -4 -6 -6 -19 -3 -14 2
-25 6 -25 8 0 8 39 4 44 -5z m980 -11 c5 -5 -8 -5 -30 1 -57 15 -64 20 -19 13
22 -3 44 -10 49 -14z m-887 -6 c-3 -3 -12 -4 -19 -1 -8 3 -5 6 6 6 11 1 17 -2
13 -5z m509 -22 c-7 -6 -76 10 -76 18 0 4 18 2 40 -3 22 -6 38 -13 36 -15z
m-459 12 c-3 -3 -12 -4 -19 -1 -8 3 -5 6 6 6 11 1 17 -2 13 -5z m548 -28 c11
-3 2 -3 -19 -1 -22 2 -44 9 -50 15 -7 7 -2 8 19 1 17 -5 39 -12 50 -15z m69
-15 c3 -4 -6 -6 -19 -3 -14 2 -25 6 -25 8 0 8 39 4 44 -5z m79 -18 c-7 -2 -19
-2 -25 0 -7 3 -2 5 12 5 14 0 19 -2 13 -5z m154 1 c-3 -3 -12 -4 -19 -1 -8 3
-5 6 6 6 11 1 17 -2 13 -5z m-110 -10 c-3 -3 -12 -4 -19 -1 -8 3 -5 6 6 6 11
1 17 -2 13 -5z m150 0 c-3 -3 -12 -4 -19 -1 -8 3 -5 6 6 6 11 1 17 -2 13 -5z
m-104 -11 c-7 -2 -19 -2 -25 0 -7 3 -2 5 12 5 14 0 19 -2 13 -5z m154 1 c-3
-3 -12 -4 -19 -1 -8 3 -5 6 6 6 11 1 17 -2 13 -5z m-32 -24 c13 -6 15 -9 5 -9
-8 0 -22 4 -30 9 -18 12 -2 12 25 0z m302 -6 c-3 -3 -12 -4 -19 -1 -8 3 -5 6
6 6 11 1 17 -2 13 -5z m-240 -10 c-3 -3 -12 -4 -19 -1 -8 3 -5 6 6 6 11 1 17
-2 13 -5z m828 -22 c-3 -3 -11 0 -18 7 -9 10 -8 11 6 5 10 -3 15 -9 12 -12z
m70 -12 c25 -11 -1 -11 -35 0 -20 6 -21 8 -5 8 11 0 29 -3 40 -8z m125 -36
c25 -7 38 -13 30 -13 -19 -1 -120 26 -129 34 -6 7 17 2 99 -21z m-703 -30 c-6
-6 -77 9 -77 16 0 4 18 3 40 -2 23 -6 39 -12 37 -14z m810 0 c-3 -3 -12 -4
-19 -1 -8 3 -5 6 6 6 11 1 17 -2 13 -5z m-754 -11 c-7 -2 -21 -2 -30 0 -10 3
-4 5 12 5 17 0 24 -2 18 -5z m792 -3 c3 -6 -1 -7 -9 -4 -18 7 -21 14 -7 14 6
0 13 -4 16 -10z m-748 -6 c-3 -3 -12 -4 -19 -1 -8 3 -5 6 6 6 11 1 17 -2 13
-5z m44 -12 c-7 -2 -18 1 -23 6 -8 8 -4 9 13 5 13 -4 18 -8 10 -11z m746 12
c-3 -3 -12 -4 -19 -1 -8 3 -5 6 6 6 11 1 17 -2 13 -5z m-680 -20 c-3 -3 -12
-4 -19 -1 -8 3 -5 6 6 6 11 1 17 -2 13 -5z m768 -4 c13 -5 14 -9 5 -9 -8 0
-24 4 -35 9 -13 5 -14 9 -5 9 8 0 24 -4 35 -9z m75 -56 c52 -13 102 -26 110
-28 30 -8 586 -157 603 -162 10 -3 16 -8 14 -10 -10 -11 -808 203 -825 221 -8
7 -6 7 98 -21z m87 10 c-3 -3 -12 -4 -19 -1 -8 3 -5 6 6 6 11 1 17 -2 13 -5z
m78 -574 c-3 -5 -16 -10 -28 -9 -20 1 -20 2 3 9 14 4 26 8 28 9 2 1 0 -3 -3
-9z m48 3 c-7 -2 -19 -2 -25 0 -7 3 -2 5 12 5 14 0 19 -2 13 -5z m502 -4 c-22
-4 -51 -8 -65 -7 -35 1 34 15 75 16 25 0 23 -2 -10 -9z m-620 -9 c-3 -5 -18
-9 -33 -9 l-27 1 30 8 c17 4 31 8 33 9 2 0 0 -3 -3 -9z m-70 -9 c-10 -8 -135
-31 -171 -31 -32 0 -9 9 41 15 40 6 111 18 135 24 2 1 0 -3 -5 -8z m455 -85
c0 -2 -9 -6 -20 -9 -11 -3 -18 -1 -14 4 5 9 34 13 34 5z m-60 -10 c0 -2 -9 -6
-20 -9 -11 -3 -18 -1 -14 4 5 9 34 13 34 5z m-57 -13 c-7 -2 -19 -2 -25 0 -7
3 -2 5 12 5 14 0 19 -2 13 -5z m-76 -39 c-3 -3 -12 -4 -19 -1 -8 3 -5 6 6 6
11 1 17 -2 13 -5z m-3942 -80 c-80 -81 -143 -170 -195 -274 -46 -92 -108 -259
-135 -365 l-23 -90 -13 45 c-18 62 -15 185 4 243 46 131 133 264 245 373 54
53 173 144 187 144 2 0 -30 -34 -70 -76z m4035 26 c-8 -5 -22 -9 -30 -9 -10 0
-8 3 5 9 27 12 43 12 25 0z m500 -164 c0 -2 -8 -10 -17 -17 -16 -13 -17 -12
-4 4 13 16 21 21 21 13z m-230 -140 c0 -2 -8 -10 -17 -17 -16 -13 -17 -12 -4
4 13 16 21 21 21 13z"/>
<path d="M7107 15029 c7 -7 15 -10 18 -7 3 3 -2 9 -12 12 -14 6 -15 5 -6 -5z"/>
<path d="M8200 15036 c0 -2 7 -7 16 -10 8 -3 12 -2 9 4 -6 10 -25 14 -25 6z"/>
<path d="M7750 15026 c0 -2 7 -7 16 -10 8 -3 12 -2 9 4 -6 10 -25 14 -25 6z"/>
<path d="M7147 15009 c7 -7 15 -10 18 -7 3 3 -2 9 -12 12 -14 6 -15 5 -6 -5z"/>
<path d="M8270 15006 c0 -2 7 -7 16 -10 8 -3 12 -2 9 4 -6 10 -25 14 -25 6z"/>
<path d="M7187 14989 c7 -7 15 -10 18 -7 3 3 -2 9 -12 12 -14 6 -15 5 -6 -5z"/>
<path d="M7887 14969 c7 -7 15 -10 18 -7 3 3 -2 9 -12 12 -14 6 -15 5 -6 -5z"/>
<path d="M7945 14940 c3 -6 12 -10 18 -10 7 0 43 -16 82 -34 38 -19 71 -33 74
-31 2 3 -29 20 -70 38 -92 43 -112 50 -104 37z"/>
<path d="M7857 14829 c7 -7 15 -10 18 -7 3 3 -2 9 -12 12 -14 6 -15 5 -6 -5z"/>
<path d="M7897 14809 c7 -7 15 -10 18 -7 3 3 -2 9 -12 12 -14 6 -15 5 -6 -5z"/>
<path d="M7940 14790 c8 -5 20 -10 25 -10 6 0 3 5 -5 10 -8 5 -19 10 -25 10
-5 0 -3 -5 5 -10z"/>
<path d="M7267 14639 c7 -7 15 -10 18 -7 3 3 -2 9 -12 12 -14 6 -15 5 -6 -5z"/>
<path d="M7307 14619 c7 -7 15 -10 18 -7 3 3 -2 9 -12 12 -14 6 -15 5 -6 -5z"/>
<path d="M7347 14599 c7 -7 15 -10 18 -7 3 3 -2 9 -12 12 -14 6 -15 5 -6 -5z"/>
<path d="M8280 14460 c8 -5 20 -10 25 -10 6 0 3 5 -5 10 -8 5 -19 10 -25 10
-5 0 -3 -5 5 -10z"/>
<path d="M8350 14430 c20 -13 33 -13 25 0 -3 6 -14 10 -23 10 -15 0 -15 -2 -2
-10z"/>
<path d="M8400 14410 c8 -5 20 -10 25 -10 6 0 3 5 -5 10 -8 5 -19 10 -25 10
-5 0 -3 -5 5 -10z"/>
<path d="M6957 14359 c7 -7 15 -10 18 -7 3 3 -2 9 -12 12 -14 6 -15 5 -6 -5z"/>
<path d="M8097 14359 c7 -7 15 -10 18 -7 3 3 -2 9 -12 12 -14 6 -15 5 -6 -5z"/>
<path d="M7590 14356 c0 -3 9 -10 20 -16 11 -6 20 -8 20 -6 0 3 -9 10 -20 16
-11 6 -20 8 -20 6z"/>
<path d="M7030 14327 c11 -11 102 -58 106 -55 2 3 -17 15 -43 29 -54 27 -70
34 -63 26z"/>
<path d="M7640 14326 c0 -2 7 -7 16 -10 8 -3 12 -2 9 4 -6 10 -25 14 -25 6z"/>
<path d="M8170 14326 c0 -2 7 -7 16 -10 8 -3 12 -2 9 4 -6 10 -25 14 -25 6z"/>
<path d="M7681 14306 c10 -9 69 -36 69 -32 0 6 -55 36 -66 36 -4 0 -5 -2 -3
-4z"/>
<path d="M8211 14306 c2 -2 15 -9 29 -15 24 -11 24 -11 6 3 -16 13 -49 24 -35
12z"/>
<path d="M7780 14186 c0 -2 7 -7 16 -10 8 -3 12 -2 9 4 -6 10 -25 14 -25 6z"/>
<path d="M7820 14166 c0 -2 7 -7 16 -10 8 -3 12 -2 9 4 -6 10 -25 14 -25 6z"/>
<path d="M7710 14090 c0 -5 5 -10 11 -10 5 0 7 5 4 10 -3 6 -8 10 -11 10 -2 0
-4 -4 -4 -10z"/>
<path d="M7740 14076 c0 -2 7 -7 16 -10 8 -3 12 -2 9 4 -6 10 -25 14 -25 6z"/>
<path d="M7781 14056 c2 -2 15 -9 29 -15 24 -11 24 -11 6 3 -16 13 -49 24 -35
12z"/>
<path d="M7410 14016 c0 -3 9 -10 20 -16 11 -6 20 -8 20 -6 0 3 -9 10 -20 16
-11 6 -20 8 -20 6z"/>
<path d="M7490 13970 c19 -11 40 -19 45 -19 6 0 -6 8 -25 19 -19 11 -39 19
-45 19 -5 0 6 -8 25 -19z"/>
<path d="M7307 13929 c7 -7 15 -10 18 -7 3 3 -2 9 -12 12 -14 6 -15 5 -6 -5z"/>
<path d="M7357 13909 c7 -7 15 -10 18 -7 3 3 -2 9 -12 12 -14 6 -15 5 -6 -5z"/>
<path d="M7397 13889 c7 -7 15 -10 18 -7 3 3 -2 9 -12 12 -14 6 -15 5 -6 -5z"/>
<path d="M7443 13869 c27 -16 87 -40 87 -35 0 6 -89 46 -99 46 -3 0 2 -5 12
-11z"/>
<path d="M11270 13856 c0 -2 8 -10 18 -17 15 -13 16 -12 3 4 -13 16 -21 21
-21 13z"/>
<path d="M11030 13846 c0 -2 8 -10 18 -17 15 -13 16 -12 3 4 -13 16 -21 21
-21 13z"/>
<path d="M10990 13826 c0 -2 8 -10 18 -17 15 -13 16 -12 3 4 -13 16 -21 21
-21 13z"/>
<path d="M11310 13826 c0 -2 8 -10 18 -17 15 -13 16 -12 3 4 -13 16 -21 21
-21 13z"/>
<path d="M7070 13810 c8 -5 22 -9 30 -9 10 0 8 3 -5 9 -27 12 -43 12 -25 0z"/>
<path d="M7145 13790 c27 -12 43 -12 25 0 -8 5 -22 9 -30 9 -10 0 -8 -3 5 -9z"/>
<path d="M11060 13776 c0 -2 8 -10 18 -17 15 -13 16 -12 3 4 -13 16 -21 21
-21 13z"/>
<path d="M11100 13747 c0 -2 15 -14 33 -27 20 -15 27 -17 18 -6 -13 16 -51 41
-51 33z"/>
<path d="M11194 13732 c8 -13 66 -56 66 -49 0 3 -17 17 -37 33 -20 15 -33 23
-29 16z"/>
<path d="M11311 13727 c2 -1 13 -9 24 -17 19 -14 19 -14 6 3 -7 9 -18 17 -24
17 -6 0 -8 -1 -6 -3z"/>
<path d="M11067 13689 c7 -7 15 -10 18 -7 3 3 -2 9 -12 12 -14 6 -15 5 -6 -5z"/>
<path d="M10970 13686 c0 -2 8 -10 18 -17 15 -13 16 -12 3 4 -13 16 -21 21
-21 13z"/>
<path d="M11010 13656 c0 -3 9 -10 20 -16 11 -6 20 -8 20 -6 0 3 -9 10 -20 16
-11 6 -20 8 -20 6z"/>
<path d="M11150 13636 c0 -2 8 -10 18 -17 15 -13 16 -12 3 4 -13 16 -21 21
-21 13z"/>
<path d="M11061 13617 c2 -1 15 -11 29 -22 l25 -20 -19 23 c-11 12 -24 22 -29
22 -6 0 -8 -1 -6 -3z"/>
<path d="M11220 13586 c0 -2 8 -10 18 -17 15 -13 16 -12 3 4 -13 16 -21 21
-21 13z"/>
<path d="M11125 13573 c6 -5 70 -54 143 -108 73 -53 131 -100 128 -102 -3 -3
-28 11 -56 32 -27 20 -50 34 -50 32 0 -3 39 -35 88 -70 169 -126 366 -281 420
-331 22 -21 35 -27 42 -20 8 8 -2 21 -32 45 -23 19 -50 42 -60 52 -20 19 -33
23 -22 5 4 -7 3 -8 -5 -4 -6 4 -9 11 -6 15 8 13 -32 44 -47 35 -7 -4 -10 -4
-6 1 9 9 -9 35 -24 35 -6 0 -4 -8 3 -17 13 -16 12 -17 -3 -4 -10 7 -16 17 -13
21 7 12 -67 71 -82 66 -7 -3 -10 1 -7 7 2 7 -8 20 -23 29 -16 9 -41 28 -58 42
-88 74 -369 278 -330 239z m347 -263 c31 -24 55 -46 53 -48 -3 -4 -125 89
-125 95 0 8 14 -1 72 -47z m123 -102 c19 -22 19 -22 -10 2 -48 40 -51 43 -30
32 11 -6 29 -21 40 -34z"/>
<path d="M11125 13540 c10 -11 20 -20 23 -20 3 0 -3 9 -13 20 -10 11 -20 20
-23 20 -3 0 3 -9 13 -20z"/>
<path d="M11290 13533 c0 -4 16 -18 35 -31 45 -29 45 -22 0 12 -19 15 -35 23
-35 19z"/>
<path d="M10760 13516 c0 -2 8 -10 18 -17 15 -13 16 -12 3 4 -13 16 -21 21
-21 13z"/>
<path d="M11140 13486 c0 -2 8 -10 18 -17 15 -13 16 -12 3 4 -13 16 -21 21
-21 13z"/>
<path d="M11227 13469 c7 -7 15 -10 18 -7 3 3 -2 9 -12 12 -14 6 -15 5 -6 -5z"/>
<path d="M7870 13466 c0 -3 9 -10 20 -16 11 -6 20 -8 20 -6 0 3 -9 10 -20 16
-11 6 -20 8 -20 6z"/>
<path d="M10859 13446 c13 -16 51 -41 51 -33 0 2 -15 14 -32 27 -21 15 -28 17
-19 6z"/>
<path d="M11210 13436 c0 -2 14 -14 30 -26 17 -12 30 -19 30 -16 0 2 -13 14
-30 26 -16 12 -30 19 -30 16z"/>
<path d="M7950 13424 c0 -7 52 -25 57 -20 2 2 -10 8 -26 14 -17 6 -31 9 -31 6z"/>
<path d="M7062 13358 c-55 -99 -130 -265 -180 -399 -48 -128 -114 -340 -125
-404 -3 -16 -15 -73 -26 -125 -11 -52 -22 -122 -26 -155 -3 -33 -8 -67 -10
-75 -27 -103 -27 -622 0 -800 14 -97 37 -245 40 -259 277 -1319 1318 -2333
2640 -2570 61 -10 139 -22 175 -26 36 -3 101 -10 145 -14 81 -8 503 -7 540 2
11 2 56 8 100 12 44 4 103 11 130 16 28 6 68 12 90 15 72 10 341 82 457 122
369 128 680 300 993 548 145 115 408 380 519 524 240 309 426 656 540 1005 47
145 86 292 78 299 -15 16 -42 4 -48 -21 -107 -489 -398 -1039 -751 -1424 -124
-136 -338 -332 -433 -399 -19 -13 -37 -27 -40 -30 -11 -14 -221 -150 -315
-205 -163 -94 -333 -172 -522 -241 -111 -40 -367 -111 -432 -120 -25 -3 -49
-8 -52 -10 -9 -5 -197 -33 -283 -42 -92 -9 -540 -9 -631 0 -83 9 -214 27 -235
33 -8 2 -32 6 -53 10 -73 10 -283 63 -394 100 -889 287 -1614 952 -1983 1820
-85 200 -183 535 -206 702 -3 26 -8 50 -9 53 -2 3 -6 34 -10 69 -4 34 -8 72
-11 84 -21 108 -20 542 1 707 14 103 37 256 41 261 2 3 6 21 9 40 3 19 11 54
16 79 6 25 12 52 14 61 2 9 18 63 35 120 59 196 125 361 217 541 35 70 62 132
58 138 -13 22 -34 8 -63 -42z"/>
<path d="M11030 13396 c0 -2 8 -10 18 -17 15 -13 16 -12 3 4 -13 16 -21 21
-21 13z"/>
<path d="M11162 13374 c10 -10 20 -16 22 -13 3 3 -5 11 -17 18 -21 13 -21 12
-5 -5z"/>
<path d="M11280 13386 c0 -2 8 -10 18 -17 15 -13 16 -12 3 4 -13 16 -21 21
-21 13z"/>
<path d="M7640 13355 c46 -18 64 -17 25 0 -16 8 -37 14 -45 14 -8 0 1 -7 20
-14z"/>
<path d="M11100 13346 c0 -2 8 -10 18 -17 15 -13 16 -12 3 4 -13 16 -21 21
-21 13z"/>
<path d="M11220 13337 c0 -3 12 -12 26 -22 15 -9 23 -12 20 -6 -7 11 -46 35
-46 28z"/>
<path d="M8350 13322 c8 -5 26 -13 40 -16 17 -5 20 -4 10 2 -8 5 -26 13 -40
16 -17 5 -20 4 -10 -2z"/>
<path d="M7518 13273 c7 -3 16 -2 19 1 4 3 -2 6 -13 5 -11 0 -14 -3 -6 -6z"/>
<path d="M7558 13263 c7 -3 16 -2 19 1 4 3 -2 6 -13 5 -11 0 -14 -3 -6 -6z"/>
<path d="M7588 13183 c6 -2 18 -2 25 0 6 3 1 5 -13 5 -14 0 -19 -2 -12 -5z"/>
<path d="M7630 13176 c0 -2 9 -6 20 -9 11 -3 18 -1 14 4 -5 9 -34 13 -34 5z"/>
<path d="M7688 13163 c7 -3 16 -2 19 1 4 3 -2 6 -13 5 -11 0 -14 -3 -6 -6z"/>
<path d="M7735 13150 c11 -5 29 -9 40 -9 l20 0 -20 9 c-11 5 -29 9 -40 9 l-20
0 20 -9z"/>
<path d="M10930 12996 c0 -2 7 -7 16 -10 8 -3 12 -2 9 4 -6 10 -25 14 -25 6z"/>
<path d="M10970 12976 c0 -2 7 -7 16 -10 8 -3 12 -2 9 4 -6 10 -25 14 -25 6z"/>
<path d="M11011 12956 c10 -9 69 -36 69 -32 0 6 -55 36 -66 36 -4 0 -5 -2 -3
-4z"/>
<path d="M11091 12916 c10 -9 89 -46 89 -41 0 5 -75 45 -86 45 -4 0 -5 -2 -3
-4z"/>
<path d="M10375 11380 l-40 -7 37 -2 c20 0 40 4 43 9 3 6 5 9 3 9 -2 -1 -21
-5 -43 -9z"/>
<path d="M10438 11383 c6 -2 18 -2 25 0 6 3 1 5 -13 5 -14 0 -19 -2 -12 -5z"/>
<path d="M10723 11373 c9 -2 25 -2 35 0 9 3 1 5 -18 5 -19 0 -27 -2 -17 -5z"/>
<path d="M10278 11363 c6 -2 18 -2 25 0 6 3 1 5 -13 5 -14 0 -19 -2 -12 -5z"/>
<path d="M10668 11363 c6 -2 18 -2 25 0 6 3 1 5 -13 5 -14 0 -19 -2 -12 -5z"/>
<path d="M10228 11353 c7 -3 16 -2 19 1 4 3 -2 6 -13 5 -11 0 -14 -3 -6 -6z"/>
<path d="M10588 11353 c6 -2 18 -2 25 0 6 3 1 5 -13 5 -14 0 -19 -2 -12 -5z"/>
<path d="M10048 11333 c7 -3 16 -2 19 1 4 3 -2 6 -13 5 -11 0 -14 -3 -6 -6z"/>
<path d="M10886 11271 c-3 -4 6 -6 19 -3 14 2 25 6 25 8 0 8 -39 4 -44 -5z"/>
<path d="M11207 11261 c-48 -10 -89 -15 -92 -13 -3 3 -5 0 -5 -7 0 -7 9 -9 23
-6 25 6 53 11 120 21 26 3 47 10 47 15 0 5 -1 8 -2 8 -2 -1 -42 -9 -91 -18z"/>
<path d="M10800 11260 c-23 -7 -23 -8 -3 -9 12 -1 25 4 28 9 3 6 5 10 3 9 -2
-1 -14 -5 -28 -9z"/>
<path d="M10848 11263 c7 -3 16 -2 19 1 4 3 -2 6 -13 5 -11 0 -14 -3 -6 -6z"/>
<path d="M11000 11250 c-47 -10 -76 -18 -65 -18 11 -1 63 7 115 17 52 11 82
19 65 19 -16 0 -68 -8 -115 -18z"/>
<path d="M10718 11243 c7 -3 16 -2 19 1 4 3 -2 6 -13 5 -11 0 -14 -3 -6 -6z"/>
<path d="M10845 11224 l-60 -13 55 5 c30 3 59 9 65 15 5 5 7 8 5 8 -3 -1 -32
-8 -65 -15z"/>
<path d="M11002 11228 c-24 -5 -42 -11 -40 -13 7 -7 88 8 88 16 0 5 -1 9 -2 8
-2 -1 -23 -6 -46 -11z"/>
<path d="M11070 11230 c0 -5 7 -7 15 -4 8 4 15 8 15 10 0 2 -7 4 -15 4 -8 0
-15 -4 -15 -10z"/>
<path d="M10910 11210 c-21 -7 -21 -8 -5 -9 11 0 27 4 35 9 18 11 5 11 -30 0z"/>
<path d="M10710 11200 c-9 -6 -10 -10 -3 -10 6 0 15 5 18 10 8 12 4 12 -15 0z"/>
<path d="M10748 11203 c6 -2 18 -2 25 0 6 3 1 5 -13 5 -14 0 -19 -2 -12 -5z"/>
<path d="M10660 11190 c-8 -5 -10 -10 -5 -10 6 0 17 5 25 10 8 5 11 10 5 10
-5 0 -17 -5 -25 -10z"/>
<path d="M10848 11193 c7 -3 16 -2 19 1 4 3 -2 6 -13 5 -11 0 -14 -3 -6 -6z"/>
<path d="M10600 11180 c-9 -6 -10 -10 -3 -10 6 0 15 5 18 10 8 12 4 12 -15 0z"/>
<path d="M10778 11183 c6 -2 18 -2 25 0 6 3 1 5 -13 5 -14 0 -19 -2 -12 -5z"/>
<path d="M10558 11173 c7 -3 16 -2 19 1 4 3 -2 6 -13 5 -11 0 -14 -3 -6 -6z"/>
<path d="M10718 11173 c6 -2 18 -2 25 0 6 3 1 5 -13 5 -14 0 -19 -2 -12 -5z"/>
<path d="M10680 11110 c-9 -6 -10 -10 -3 -10 6 0 15 5 18 10 8 12 4 12 -15 0z"/>
<path d="M10718 11113 c7 -3 16 -2 19 1 4 3 -2 6 -13 5 -11 0 -14 -3 -6 -6z"/>
<path d="M10630 11100 c0 -5 7 -7 15 -4 8 4 15 8 15 10 0 2 -7 4 -15 4 -8 0
-15 -4 -15 -10z"/>
<path d="M10598 11093 c7 -3 16 -2 19 1 4 3 -2 6 -13 5 -11 0 -14 -3 -6 -6z"/>
<path d="M10538 11083 c7 -3 16 -2 19 1 4 3 -2 6 -13 5 -11 0 -14 -3 -6 -6z"/>
<path d="M10675 11080 c-27 -7 -27 -8 -5 -8 14 0 36 4 50 8 20 6 21 8 5 8 -11
0 -33 -4 -50 -8z"/>
<path d="M10598 11063 c7 -3 16 -2 19 1 4 3 -2 6 -13 5 -11 0 -14 -3 -6 -6z"/>
<path d="M10510 11050 c-20 -6 -21 -8 -5 -8 11 0 34 4 50 8 27 7 27 8 5 8 -14
0 -36 -4 -50 -8z"/>
<path d="M10428 11033 c6 -2 18 -2 25 0 6 3 1 5 -13 5 -14 0 -19 -2 -12 -5z"/>
<path d="M10388 11023 c7 -3 16 -2 19 1 4 3 -2 6 -13 5 -11 0 -14 -3 -6 -6z"/>
<path d="M10308 11013 c7 -3 16 -2 19 1 4 3 -2 6 -13 5 -11 0 -14 -3 -6 -6z"/>
<path d="M10258 11003 c7 -3 16 -2 19 1 4 3 -2 6 -13 5 -11 0 -14 -3 -6 -6z"/>
<path d="M10806 11001 c-3 -4 6 -6 19 -3 14 2 25 6 25 8 0 8 -39 4 -44 -5z"/>
<path d="M10540 10993 c-37 -7 -46 -20 -10 -15 17 2 33 8 36 13 3 5 4 8 2 8
-2 -1 -14 -4 -28 -6z"/>
<path d="M10756 10991 c-4 -5 3 -7 14 -4 23 6 26 13 6 13 -8 0 -17 -4 -20 -9z"/>
<path d="M10468 10973 c7 -3 16 -2 19 1 4 3 -2 6 -13 5 -11 0 -14 -3 -6 -6z"/>
<path d="M10653 10973 c9 -2 23 -2 30 0 6 3 -1 5 -18 5 -16 0 -22 -2 -12 -5z"/>
<path d="M10375 10960 l-30 -8 27 -1 c15 0 30 4 33 9 3 6 5 9 3 9 -2 -1 -16
-5 -33 -9z"/>
<path d="M10428 10963 c7 -3 16 -2 19 1 4 3 -2 6 -13 5 -11 0 -14 -3 -6 -6z"/>
<path d="M10593 10963 c9 -2 23 -2 30 0 6 3 -1 5 -18 5 -16 0 -22 -2 -12 -5z"/>
<path d="M10538 10953 c6 -2 18 -2 25 0 6 3 1 5 -13 5 -14 0 -19 -2 -12 -5z"/>
<path d="M10298 10943 c6 -2 18 -2 25 0 6 3 1 5 -13 5 -14 0 -19 -2 -12 -5z"/>
<path d="M10248 10933 c7 -3 16 -2 19 1 4 3 -2 6 -13 5 -11 0 -14 -3 -6 -6z"/>
<path d="M10198 10923 c6 -2 18 -2 25 0 6 3 1 5 -13 5 -14 0 -19 -2 -12 -5z"/>
<path d="M10765 10905 c-5 -2 -67 -18 -138 -36 -70 -18 -126 -34 -123 -36 4
-4 288 66 295 73 5 5 -19 4 -34 -1z"/>
<path d="M10028 10893 c7 -3 16 -2 19 1 4 3 -2 6 -13 5 -11 0 -14 -3 -6 -6z"/>
<path d="M11270 10840 c-18 -12 -2 -12 25 0 13 6 15 9 5 9 -8 0 -22 -4 -30 -9z"/>
<path d="M10468 10823 c7 -3 16 -2 19 1 4 3 -2 6 -13 5 -11 0 -14 -3 -6 -6z"/>
<path d="M10400 10810 c-20 -6 -21 -8 -5 -8 11 0 29 3 40 8 25 11 -1 11 -35 0z"/>
<path d="M10306 10781 c-4 -5 3 -7 14 -4 23 6 26 13 6 13 -8 0 -17 -4 -20 -9z"/>
<path d="M10238 10763 c7 -3 16 -2 19 1 4 3 -2 6 -13 5 -11 0 -14 -3 -6 -6z"/>
<path d="M10450 10710 c-146 -48 -136 -51 18 -5 140 42 143 43 117 43 -11 0
-72 -17 -135 -38z"/>
<path d="M10088 10723 c7 -3 16 -2 19 1 4 3 -2 6 -13 5 -11 0 -14 -3 -6 -6z"/>
<path d="M10255 10649 c-27 -10 -37 -17 -21 -14 31 7 97 33 81 33 -5 0 -32 -8
-60 -19z"/>
<path d="M10405 10640 c-13 -5 -14 -9 -5 -9 8 0 24 4 35 9 13 5 14 9 5 9 -8 0
-24 -4 -35 -9z"/>
<path d="M10178 10623 c7 -3 16 -2 19 1 4 3 -2 6 -13 5 -11 0 -14 -3 -6 -6z"/>
<path d="M10305 10610 c-13 -5 -14 -9 -5 -9 8 0 24 4 35 9 13 5 14 9 5 9 -8 0
-24 -4 -35 -9z"/>
<path d="M10105 10600 c-3 -6 1 -7 9 -4 18 7 21 14 7 14 -6 0 -13 -4 -16 -10z"/>
<path d="M10005 10570 c-3 -6 1 -7 9 -4 18 7 21 14 7 14 -6 0 -13 -4 -16 -10z"/>
<path d="M9970 10560 c-9 -6 -10 -10 -3 -10 6 0 15 5 18 10 8 12 4 12 -15 0z"/>
<path d="M10160 10560 c-9 -6 -10 -10 -3 -10 6 0 15 5 18 10 8 12 4 12 -15 0z"/>
<path d="M10550 10460 c-9 -6 -10 -10 -3 -10 6 0 15 5 18 10 8 12 4 12 -15 0z"/>
<path d="M10505 10440 c-3 -6 1 -7 9 -4 18 7 21 14 7 14 -6 0 -13 -4 -16 -10z"/>
<path d="M10455 10420 c-3 -6 1 -7 9 -4 18 7 21 14 7 14 -6 0 -13 -4 -16 -10z"/>
<path d="M10598 10368 c-76 -34 -136 -63 -134 -65 3 -3 276 114 285 123 13 13
-29 -4 -151 -58z"/>
<path d="M10405 10400 c-3 -6 1 -7 9 -4 18 7 21 14 7 14 -6 0 -13 -4 -16 -10z"/>
<path d="M10390 10275 c-14 -8 -20 -14 -14 -15 5 0 19 7 30 15 24 18 16 19
-16 0z"/>
<path d="M10555 10250 c-3 -5 -2 -10 4 -10 5 0 13 5 16 10 3 6 2 10 -4 10 -5
0 -13 -4 -16 -10z"/>
<path d="M10310 10240 c-9 -6 -10 -10 -3 -10 6 0 15 5 18 10 8 12 4 12 -15 0z"/>
<path d="M11077 10209 c-31 -22 -57 -43 -57 -45 0 -3 27 14 60 37 53 37 67 49
57 49 -1 0 -28 -18 -60 -41z"/>
<path d="M10500 10225 c-14 -8 -20 -14 -15 -14 6 0 21 6 35 14 14 8 21 14 15
14 -5 0 -21 -6 -35 -14z"/>
<path d="M10450 10200 c-9 -6 -10 -10 -3 -10 6 0 15 5 18 10 8 12 4 12 -15 0z"/>
<path d="M10403 10180 c-13 -5 -23 -11 -23 -14 0 -7 40 6 46 15 6 10 6 10 -23
-1z"/>
<path d="M10826 10144 c-98 -61 -106 -75 -11 -18 92 55 90 53 84 58 -2 2 -35
-16 -73 -40z"/>
<path d="M11828 10089 c-54 -49 -95 -89 -92 -89 4 0 47 37 98 82 50 45 93 84
95 85 2 2 2 5 0 7 -2 2 -48 -36 -101 -85z"/>
<path d="M10340 10150 c-8 -5 -10 -10 -5 -10 6 0 17 5 25 10 8 5 11 10 5 10
-5 0 -17 -5 -25 -10z"/>
<path d="M10600 10140 c-9 -6 -10 -10 -3 -10 6 0 15 5 18 10 8 12 4 12 -15 0z"/>
<path d="M10300 10130 c-9 -6 -10 -10 -3 -10 6 0 15 5 18 10 8 12 4 12 -15 0z"/>
<path d="M10954 10118 l-19 -23 23 19 c21 18 27 26 19 26 -2 0 -12 -10 -23
-22z"/>
<path d="M10550 10115 c-14 -8 -20 -14 -14 -15 5 0 19 7 30 15 24 18 16 19
-16 0z"/>
<path d="M10474 10074 c-18 -14 -18 -15 4 -4 12 6 22 13 22 15 0 8 -5 6 -26
-11z"/>
<path d="M10673 10044 c-29 -19 -53 -37 -53 -39 0 -6 59 31 90 55 40 31 20 23
-37 -16z"/>
<path d="M11570 10038 c-25 -22 -36 -36 -25 -30 19 10 84 72 74 72 -2 -1 -24
-19 -49 -42z"/>
<path d="M10285 9990 c-3 -6 1 -7 9 -4 18 7 21 14 7 14 -6 0 -13 -4 -16 -10z"/>
<path d="M10574 9978 c-41 -30 -52 -42 -29 -30 26 15 72 51 64 52 -4 0 -19
-10 -35 -22z"/>
<path d="M11319 9973 l-24 -28 30 25 c17 14 32 26 34 28 2 1 0 2 -6 2 -5 0
-20 -12 -34 -27z"/>
<path d="M11499 9973 c-13 -16 -12 -17 4 -4 9 7 17 15 17 17 0 8 -8 3 -21 -13z"/>
<path d="M11259 9923 l-24 -28 28 24 c15 14 27 26 27 28 0 8 -8 1 -31 -24z"/>
<path d="M10920 9898 l-45 -40 45 33 c25 18 47 34 49 36 2 2 2 5 0 7 -2 2 -24
-14 -49 -36z"/>
<path d="M11429 9913 l-24 -28 28 24 c15 14 27 26 27 28 0 8 -8 1 -31 -24z"/>
<path d="M11194 9868 l-29 -33 33 29 c30 28 37 36 29 36 -2 0 -16 -15 -33 -32z"/>
<path d="M10409 9863 c-13 -16 -12 -17 4 -4 9 7 17 15 17 17 0 8 -8 3 -21 -13z"/>
<path d="M10815 9814 l-50 -46 53 43 c47 38 58 49 49 49 -1 0 -25 -21 -52 -46z"/>
<path d="M10369 9833 c-13 -16 -12 -17 4 -4 9 7 17 15 17 17 0 8 -8 3 -21 -13z"/>
<path d="M11119 9803 c-13 -16 -12 -17 4 -4 9 7 17 15 17 17 0 8 -8 3 -21 -13z"/>
<path d="M11069 9763 c-13 -16 -12 -17 4 -4 9 7 17 15 17 17 0 8 -8 3 -21 -13z"/>
<path d="M10778 9714 c-38 -30 -68 -57 -68 -60 0 -3 32 21 70 52 61 49 78 65
68 64 -2 0 -33 -25 -70 -56z"/>
<path d="M10559 9723 c-13 -16 -12 -17 4 -4 9 7 17 15 17 17 0 8 -8 3 -21 -13z"/>
<path d="M11213 9605 c-51 -47 -90 -85 -87 -85 3 0 48 38 100 85 52 47 91 85
86 85 -4 -1 -49 -39 -99 -85z"/>
<path d="M11419 9643 c-13 -16 -12 -17 4 -4 9 7 17 15 17 17 0 8 -8 3 -21 -13z"/>
<path d="M10449 9633 c-13 -16 -12 -17 4 -4 9 7 17 15 17 17 0 8 -8 3 -21 -13z"/>
<path d="M10674 9628 l-19 -23 23 19 c21 18 27 26 19 26 -2 0 -12 -10 -23 -22z"/>
<path d="M10759 9623 c-13 -16 -12 -17 4 -4 9 7 17 15 17 17 0 8 -8 3 -21 -13z"/>
<path d="M10707 9585 c-15 -14 -24 -25 -19 -25 5 0 19 11 32 25 30 32 23 32
-13 0z"/>
<path d="M11349 9593 c-13 -16 -12 -17 4 -4 9 7 17 15 17 17 0 8 -8 3 -21 -13z"/>
<path d="M11289 9553 c-13 -16 -12 -17 4 -4 9 7 17 15 17 17 0 8 -8 3 -21 -13z"/>
<path d="M10644 9528 l-19 -23 23 19 c21 18 27 26 19 26 -2 0 -12 -10 -23 -22z"/>
<path d="M10555 9530 c-3 -6 1 -7 9 -4 18 7 21 14 7 14 -6 0 -13 -4 -16 -10z"/>
<path d="M11079 9483 l-24 -28 28 24 c15 14 27 26 27 28 0 8 -8 1 -31 -24z"/>
<path d="M10759 9443 c-13 -16 -12 -17 4 -4 9 7 17 15 17 17 0 8 -8 3 -21 -13z"/>
<path d="M10719 9413 c-13 -16 -12 -17 4 -4 9 7 17 15 17 17 0 8 -8 3 -21 -13z"/>
<path d="M11330 7364 c-300 -58 -490 -318 -490 -670 0 -129 23 -231 76 -341
114 -237 354 -352 630 -302 77 14 207 76 266 129 93 82 168 226 197 380 14 78
7 302 -13 373 -53 192 -175 334 -343 399 -67 26 -93 31 -188 34 -60 1 -121 0
-135 -2z m267 -171 c302 -148 327 -755 40 -952 -99 -67 -254 -80 -362 -31
-105 48 -196 172 -236 320 -28 102 -21 290 15 395 56 164 144 258 279 295 78
22 187 10 264 -27z"/>
<path d="M12689 7356 c-114 -33 -206 -104 -250 -193 -20 -40 -24 -64 -24 -143
0 -87 3 -100 30 -149 48 -87 146 -160 284 -212 143 -53 229 -121 250 -196 44
-157 -72 -283 -259 -283 -66 0 -191 30 -249 59 -50 26 -48 26 -55 -1 -3 -13
-12 -44 -20 -70 l-15 -48 31 -16 c112 -58 328 -80 455 -47 124 32 215 102 261
200 24 51 27 70 27 158 0 85 -4 107 -24 149 -47 94 -141 165 -316 237 -116 47
-173 86 -206 138 -56 88 -28 199 65 256 47 29 55 30 155 29 91 0 115 -4 171
-27 35 -14 65 -25 66 -24 11 16 42 133 36 139 -4 4 -34 17 -67 29 -76 27 -275
36 -346 15z"/>
<path d="M14311 7349 c-35 -5 -70 -10 -77 -13 -9 -4 -12 -144 -13 -640 l0
-636 85 0 84 0 0 280 0 280 93 0 c153 0 234 -35 278 -122 11 -22 40 -117 64
-211 62 -249 47 -227 154 -227 l89 0 -20 53 c-11 28 -21 59 -23 67 -2 8 -13
53 -25 100 -12 47 -24 96 -26 110 -3 14 -8 34 -11 45 -4 11 -8 26 -9 33 -11
61 -101 183 -146 198 -28 8 -22 19 24 39 63 28 141 110 166 175 29 77 26 203
-7 278 -43 97 -143 165 -282 190 -63 12 -306 12 -398 1z m413 -153 c191 -93
162 -364 -46 -429 -46 -14 -156 -22 -260 -18 l-28 1 0 234 0 235 28 4 c15 2
77 3 138 2 99 -1 118 -5 168 -29z"/>
<path d="M18671 7349 c-35 -5 -70 -10 -78 -13 -11 -4 -13 -121 -13 -641 l0
-635 85 0 85 0 0 281 0 280 103 -2 c152 -2 224 -34 268 -121 10 -21 40 -120
65 -220 25 -101 50 -191 55 -200 8 -15 24 -18 98 -18 l89 0 -18 48 c-10 26
-32 106 -49 177 -18 72 -39 153 -48 180 -30 97 -86 173 -146 199 l-28 12 47
24 c71 37 130 95 161 158 25 51 28 67 28 157 -1 89 -4 106 -27 151 -50 96
-145 158 -279 182 -64 12 -306 12 -398 1z m349 -130 c66 -14 139 -64 164 -113
24 -49 32 -128 17 -183 -16 -60 -82 -125 -152 -151 -52 -19 -134 -26 -271 -23
l-28 1 0 234 0 235 33 4 c69 8 188 7 237 -4z"/>
<path d="M142 6705 l0 -645 359 0 c232 0 359 4 360 10 0 6 1 24 1 40 0 17 -1
44 -1 60 l-1 30 -275 0 -275 0 0 575 0 575 -84 0 -85 0 1 -645z"/>
<path d="M1529 7123 c-43 -126 -140 -415 -218 -643 -78 -228 -141 -416 -141
-417 0 -2 40 -3 88 -3 l88 0 65 203 65 202 228 0 229 0 53 -160 c30 -88 61
-179 70 -202 l16 -43 89 0 c49 0 89 2 89 3 0 2 -43 129 -96 283 -52 153 -130
383 -173 509 -43 127 -99 289 -123 360 l-45 130 -104 3 -104 2 -76 -227z m232
-123 c17 -52 33 -102 36 -110 3 -8 27 -77 53 -152 l47 -138 -188 0 c-107 0
-189 4 -189 9 0 5 31 102 70 216 38 114 79 243 92 288 l22 82 14 -50 c7 -27
27 -93 43 -145z"/>
<path d="M2583 7336 c3 -8 31 -56 61 -106 31 -50 56 -94 56 -97 0 -2 8 -17 19
-31 10 -15 61 -99 113 -187 53 -89 101 -170 108 -181 12 -19 -6 -52 -180 -340
-106 -175 -195 -322 -197 -326 -2 -5 40 -8 94 -8 l98 0 20 37 c11 21 62 112
113 203 51 91 107 193 125 228 17 34 34 62 37 62 3 0 30 -44 61 -98 31 -53
100 -172 154 -264 l98 -168 99 0 100 0 -20 33 c-229 378 -338 557 -354 579
-11 15 -20 36 -20 45 -1 10 75 140 168 288 93 149 180 287 193 308 l23 37 -99
0 -98 0 -114 -196 c-62 -108 -128 -224 -146 -259 l-33 -63 -115 207 c-64 114
-128 229 -144 257 l-29 49 -98 3 c-84 2 -98 1 -93 -12z"/>
<path d="M4292 7333 c-5 -10 -48 -133 -95 -273 -47 -140 -142 -421 -211 -624
-69 -203 -126 -371 -126 -373 0 -2 40 -3 88 -3 l88 0 65 203 65 202 229 0 228
0 67 -200 67 -200 92 -3 c50 -1 91 -1 91 1 0 2 -22 69 -49 148 -27 79 -108
315 -179 524 -72 209 -148 432 -170 495 l-39 115 -101 3 c-88 2 -102 0 -110
-15z m147 -288 c22 -71 64 -201 94 -287 l55 -158 -192 0 -192 0 73 217 c41
120 75 227 77 238 2 11 7 27 10 35 3 8 10 35 17 60 6 25 13 41 15 35 2 -5 21
-68 43 -140z"/>
<path d="M5961 6705 l0 -645 85 0 84 0 0 645 0 645 -84 0 -84 0 -1 -645z"/>
<path d="M6631 6705 l0 -645 80 0 81 0 -4 533 -3 532 81 -145 c44 -80 190
-319 325 -532 l244 -388 87 0 87 0 0 645 0 645 -81 0 -80 0 5 -502 c3 -277 7
-515 10 -530 2 -16 3 -28 2 -28 -2 0 -13 21 -26 48 -46 97 -156 284 -302 512
-83 129 -188 295 -235 368 l-84 132 -94 0 -93 0 0 -645z"/>
<path d="M8730 6705 l0 -645 85 0 85 0 0 244 0 245 61 71 61 71 180 -268 c99
-147 194 -289 211 -315 l32 -48 104 0 c98 0 103 1 89 18 -8 9 -86 122 -173
251 -87 128 -193 286 -236 349 -44 64 -79 120 -79 124 0 7 115 145 261 313 15
16 65 75 112 130 l85 100 -105 3 c-92 2 -107 0 -118 -15 -7 -10 -21 -28 -31
-39 -57 -65 -357 -437 -401 -498 l-53 -71 0 313 0 312 -85 0 -85 0 0 -645z"/>
<path d="M10249 6903 c0 -247 -3 -470 -5 -498 -10 -99 -65 -184 -132 -206 -50
-17 -127 -18 -188 -4 l-53 12 -7 -41 c-17 -88 -14 -99 35 -113 26 -8 86 -12
150 -10 90 2 115 7 162 29 69 32 127 88 157 151 46 98 50 149 50 653 l1 474
-85 0 -84 0 -1 -447z"/>
<path d="M15470 6705 l0 -645 85 0 85 0 0 645 0 645 -85 0 -85 0 0 -645z"/>
<path d="M16010 7348 c0 -4 17 -57 211 -653 139 -427 172 -525 196 -592 l15
-43 93 0 93 0 15 43 c8 23 92 258 187 522 95 264 192 535 216 603 l44 123 -92
-3 -92 -3 -18 -50 c-65 -180 -299 -885 -318 -957 -13 -48 -26 -85 -30 -83 -4
2 -12 30 -19 62 -12 52 -98 337 -179 593 -17 52 -54 172 -84 265 l-54 170 -92
3 c-51 1 -92 1 -92 0z"/>
<path d="M17422 6705 l0 -645 364 0 364 0 0 70 0 70 -280 0 -280 0 0 230 0
230 53 1 c28 0 141 0 250 -1 l197 -1 1 26 c0 14 1 44 1 68 l1 42 -251 3 -252
2 0 205 0 205 265 0 c205 0 265 3 266 13 1 18 1 100 0 115 -1 9 -78 12 -350
12 l-349 0 0 -645z"/>
<path d="M5545 5072 c-72 -23 -145 -99 -169 -175 -21 -68 -18 -168 8 -230 24
-56 81 -114 134 -134 54 -21 200 -24 244 -5 23 10 26 15 19 34 -5 14 -16 22
-27 21 -11 -2 -41 -5 -67 -9 -75 -9 -143 12 -187 57 -42 43 -59 93 -61 171 -3
103 61 198 145 217 28 6 112 7 155 1 30 -4 35 -2 42 22 7 26 5 27 -44 37 -69
14 -131 12 -192 -7z"/>
<path d="M3640 4799 l0 -280 37 3 36 3 -1 265 c0 146 -1 271 -1 278 -1 7 -15
12 -36 12 l-35 0 0 -281z"/>
<path d="M7420 4800 l0 -280 158 0 159 0 -2 28 -1 27 -120 5 -120 5 0 95 1 95
108 3 107 3 0 29 0 30 -109 0 -108 0 -1 90 0 90 113 0 c117 0 127 4 117 43 -4
15 -20 17 -153 17 l-149 0 0 -280z"/>
<path d="M9380 4800 l0 -280 153 0 c85 0 156 2 159 5 3 3 3 17 0 30 -4 25 -5
25 -122 25 l-118 0 0 228 c0 125 0 237 -1 250 -1 18 -7 22 -36 22 l-35 0 0
-280z"/>
<path d="M11466 5038 c-16 -45 -81 -236 -134 -393 -17 -49 -33 -98 -37 -107
-6 -15 -1 -18 32 -18 l38 0 30 88 30 87 93 0 c51 0 97 -2 101 -5 4 -3 20 -42
35 -87 l28 -83 40 0 c34 0 39 3 33 18 -4 9 -15 42 -25 72 -40 119 -141 417
-152 443 -9 24 -16 27 -53 27 -42 0 -44 -1 -59 -42z m68 -64 c3 -11 20 -65 39
-121 l34 -103 -84 0 c-45 0 -83 2 -83 5 0 3 7 22 15 42 8 19 17 45 20 57 2 11
12 44 21 71 9 28 18 56 20 64 5 17 13 10 18 -15z"/>
<path d="M13382 4800 l0 -280 35 0 34 0 -3 229 c-2 126 -2 228 0 227 1 -2 39
-63 85 -137 45 -74 109 -176 142 -226 58 -89 61 -93 97 -93 l37 0 1 280 1 280
-36 0 -36 0 3 -220 c2 -121 1 -220 -2 -220 -3 0 -20 28 -39 63 -19 34 -81 133
-137 220 l-103 157 -40 0 -39 0 0 -280z"/>
<path d="M15502 5073 l-22 -4 2 -272 3 -272 115 0 c134 0 195 17 257 70 105
90 119 301 26 400 -57 60 -110 78 -243 80 -63 1 -125 0 -138 -2z m264 -78 c84
-41 121 -141 94 -255 -25 -106 -109 -160 -245 -160 l-62 0 1 217 1 218 30 5
c53 11 129 0 181 -25z"/>
</g>
</svg>
